<svg id="room-24px" xmlns="http://www.w3.org/2000/svg" width="21.902" height="21.902" viewBox="0 0 21.902 21.902">
  <path id="Path_1" data-name="Path 1" d="M0,0H21.9V21.9H0Z" fill="none"/>
  <path id="Path_2" data-name="Path 2" d="M81.388,30A6.383,6.383,0,0,0,75,36.388c0,3.806,4.034,9.053,5.695,11.051a.906.906,0,0,0,1.4,0c1.652-2,5.685-7.246,5.685-11.051A6.383,6.383,0,0,0,81.388,30Zm0,8.67a2.281,2.281,0,1,1,2.281-2.281A2.282,2.282,0,0,1,81.388,38.67Z" transform="translate(-70.437 -28.175)" fill="rgba(255,255,255,0.8)"/>
</svg>
